<?xml version="1.0" standalone="no"?>
<!DOCTYPE svg PUBLIC "-//W3C//DTD SVG 20010904//EN"
 "http://www.w3.org/TR/2001/REC-SVG-20010904/DTD/svg10.dtd">
<svg version="1.0" xmlns="http://www.w3.org/2000/svg"
 width="1536.000000pt" height="1024.000000pt" viewBox="0 0 1536.000000 1024.000000"
 preserveAspectRatio="xMidYMid meet">

<g transform="translate(0.000000,1024.000000) scale(0.100000,-0.100000)"
fill="#000000" stroke="none">
<path d="M2647 6853 c-10 -9 -9 -1363 1 -1363 4 0 155 148 335 329 l327 328
-2 354 -3 354 -326 3 c-179 1 -328 -1 -332 -5z m635 -14 c9 -7 11 -29 9 -63
l-5 -51 -7 40 c-3 22 -7 -78 -8 -222 0 -145 -5 -263 -9 -263 -5 0 -12 3 -16 8
-4 4 -11 7 -14 8 -23 3 -40 18 -35 30 4 12 0 13 -23 4 -28 -11 -28 -11 -9 9
10 12 13 21 7 21 -7 0 -12 -5 -12 -10 0 -6 -6 -10 -12 -9 -26 3 -39 -2 -60
-23 -23 -23 -23 -24 0 31 3 9 1 12 -5 8 -6 -4 -14 -1 -16 5 -3 7 -6 3 -6 -9
-1 -17 -5 -21 -18 -16 -12 5 -14 3 -8 -8 8 -12 6 -12 -8 0 -9 7 -17 10 -17 5
0 -5 -5 -2 -10 6 -11 17 -39 20 -59 5 -10 -7 -13 -7 -9 0 4 6 3 17 -3 25 -6
11 -9 12 -9 2 0 -7 -4 -10 -10 -7 -5 3 -10 0 -10 -7 0 -8 -5 -6 -11 5 -8 14
-14 16 -25 6 -11 -9 -14 -9 -14 0 0 7 -4 9 -10 6 -5 -3 -10 -1 -10 4 0 6 6 11
13 12 6 0 3 4 -8 9 -29 12 -35 12 -35 -3 0 -8 -7 -14 -15 -14 -8 0 -15 4 -15
9 0 4 -6 7 -12 6 -7 -2 -12 2 -11 7 1 6 -9 12 -23 13 -21 2 -24 -2 -25 -36 -1
-37 -1 -37 -9 -7 -4 17 -8 130 -9 251 l-1 222 295 1 c214 2 298 -1 307 -10z
m-32 -643 c0 -2 -8 -10 -17 -17 -16 -13 -17 -12 -4 4 13 16 21 21 21 13z"/>
<path d="M2702 6450 c0 -14 2 -19 5 -12 2 6 2 18 0 25 -3 6 -5 1 -5 -13z"/>
<path d="M2884 6409 c-4 -7 -3 -9 4 -5 6 3 13 -2 15 -11 4 -16 5 -16 6 -1 1
21 -15 32 -25 17z"/>
<path d="M2960 6372 c0 -12 3 -12 15 -2 8 7 15 13 15 15 0 1 -7 2 -15 2 -8 0
-15 -7 -15 -15z"/>
<path d="M3210 6320 c0 -14 15 -19 29 -11 9 6 7 10 -8 14 -12 3 -21 1 -21 -3z"/>
<path d="M4169 6823 c-18 -20 -28 -33 -21 -29 7 5 12 1 12 -11 0 -15 2 -16 10
-3 6 9 5 17 -1 21 -6 3 3 18 21 33 17 14 28 26 23 26 -5 0 -25 -16 -44 -37z"/>
<path d="M4634 6853 l399 -3 -24 -28 -24 -27 28 24 c15 14 27 28 27 33 0 4
-181 7 -402 6 l-403 -3 399 -2z"/>
<path d="M3378 6043 l-738 -738 0 -442 c0 -244 2 -443 5 -443 7 0 940 941
1585 1600 272 278 479 491 460 475 -19 -17 -118 -115 -220 -218 -102 -103
-189 -187 -194 -187 -5 0 1 12 15 28 l24 27 -26 -23 c-14 -12 -29 -19 -34 -15
-4 5 -5 3 -1 -4 3 -6 -2 -18 -12 -25 -11 -7 -20 -17 -22 -23 -1 -5 -6 -9 -12
-7 -5 1 -7 -2 -3 -8 3 -6 12 -7 18 -3 7 4 6 0 -2 -10 -14 -18 -26 -24 -17 -8
3 5 -1 15 -10 22 -13 10 -17 10 -25 -2 -7 -11 -9 -10 -7 6 4 52 -2 67 -22 62
-11 -3 -20 0 -20 5 0 6 -9 3 -20 -7 -18 -16 -20 -16 -20 -2 0 22 -9 21 -27 0
-13 -16 -14 -16 -9 -1 5 16 -21 35 -32 23 -3 -3 -1 -5 5 -5 5 0 10 -6 10 -14
0 -9 -7 -12 -16 -9 -29 11 -32 15 -21 28 8 10 8 15 -1 21 -8 4 -9 3 -5 -4 4
-7 1 -12 -9 -12 -12 0 -14 -4 -5 -19 7 -14 7 -22 -2 -27 -6 -4 -9 -3 -5 2 3 5
-1 20 -9 34 l-14 25 2 -25 c2 -19 -1 -24 -14 -22 -10 2 -18 -2 -18 -8 0 -13
-30 2 -56 27 -16 16 -16 16 -10 -4 4 -13 1 -25 -11 -34 -17 -13 -17 -13 -3 5
14 18 14 19 -6 8 -12 -6 -24 -9 -26 -6 -3 2 -15 6 -26 9 -16 3 -19 0 -15 -13
6 -15 4 -15 -9 -4 -14 11 -18 10 -27 -5 -6 -11 -11 -13 -11 -5 0 7 -8 12 -17
10 -10 -1 -24 2 -32 6 -11 7 -13 5 -9 -6 4 -9 0 -15 -8 -15 -8 0 -14 4 -14 9
0 4 -4 8 -9 8 -6 0 -8 -10 -6 -22 4 -20 2 -21 -8 -8 -14 18 -68 21 -79 5 -5
-6 -8 -3 -8 8 0 9 -3 17 -7 17 -15 0 -73 -52 -73 -66 0 -7 -5 -14 -12 -14 -6
0 -21 -8 -32 -17 -12 -10 94 101 234 247 140 146 262 270 271 277 20 15 97
109 81 99 -26 -16 -10 13 26 46 64 60 127 128 117 128 -4 0 -341 -332 -747
-737z m577 537 c-10 -11 -20 -18 -23 -15 -7 6 18 35 31 35 5 0 2 -9 -8 -20z
m296 -523 l-24 -22 19 27 c10 14 21 24 23 22 3 -3 -6 -15 -18 -27z m-286 4 c3
-5 2 -12 -3 -15 -5 -3 -9 1 -9 9 0 17 3 19 12 6z m-605 -120 c0 -5 -7 -12 -16
-15 -14 -5 -15 -4 -4 9 14 17 20 19 20 6z"/>
<path d="M4005 6629 c-11 -17 1 -21 15 -4 8 9 8 15 2 15 -6 0 -14 -5 -17 -11z"/>
<path d="M4819 6623 c-13 -16 -12 -17 4 -4 9 7 17 15 17 17 0 8 -8 3 -21 -13z"/>
<path d="M4774 6578 l-19 -23 23 19 c21 18 27 26 19 26 -2 0 -12 -10 -23 -22z"/>
<path d="M4725 6540 c-3 -6 1 -7 9 -4 18 7 21 14 7 14 -6 0 -13 -4 -16 -10z"/>
<path d="M5650 5740 l0 -420 90 0 90 0 0 180 0 180 98 0 97 0 180 -180 180
-180 130 0 130 0 -65 63 c-36 34 -141 135 -233 223 l-168 162 205 193 205 194
-125 3 -126 3 -165 -161 -164 -160 -90 0 -89 0 0 160 0 160 -90 0 -90 0 0
-420z"/>
<path d="M6926 6140 c-69 -27 -114 -73 -132 -137 -12 -42 -15 -99 -12 -285 3
-227 4 -234 28 -278 30 -53 74 -85 147 -106 43 -13 106 -15 355 -12 284 3 306
4 348 24 54 26 93 66 115 118 14 32 17 81 17 275 2 267 -5 296 -75 358 -65 57
-106 63 -441 63 -272 -1 -306 -3 -350 -20z m649 -165 c25 -24 25 -25 25 -233
0 -271 10 -255 -167 -262 -70 -3 -195 -3 -276 0 -200 7 -187 -12 -187 262 0
208 0 209 25 233 l24 25 266 0 266 0 24 -25z"/>
<path d="M7960 6080 l0 -80 190 0 190 0 0 -340 0 -340 93 0 92 0 -3 340 -3
340 191 0 190 0 0 80 0 80 -470 0 -470 0 0 -80z"/>
<path d="M9210 5838 c-90 -178 -184 -364 -211 -414 -27 -50 -49 -94 -49 -97 0
-4 47 -7 105 -7 l104 0 167 340 c92 187 172 339 177 337 6 -2 87 -155 181
-340 l171 -337 98 0 c53 0 97 4 97 9 0 4 -56 116 -123 247 -68 132 -163 317
-211 412 l-88 172 -128 0 -128 0 -162 -322z"/>
<path d="M10349 5951 c168 -163 211 -210 199 -217 -8 -5 -109 -100 -224 -211
l-209 -203 131 0 130 0 154 155 154 156 116 -115 c63 -62 135 -132 160 -155
l45 -41 120 0 120 0 -75 73 c-41 39 -141 136 -222 214 l-147 142 211 206 211
205 -124 0 -124 0 -147 -147 -148 -148 -148 148 -147 147 -125 -1 -125 0 214
-208z"/>
<path d="M11747 6107 c-13 -29 -108 -216 -211 -416 -102 -199 -186 -364 -186
-366 0 -3 46 -5 103 -5 l102 0 170 340 c151 303 171 339 183 323 7 -10 86
-163 175 -340 l162 -323 103 0 104 0 -55 103 c-30 56 -127 245 -216 420 l-163
317 -123 0 -124 0 -24 -53z"/>
<path d="M3866 6131 c-3 -5 1 -14 9 -21 10 -9 15 -9 15 -1 0 6 -5 11 -11 11
-5 0 -7 5 -4 10 3 6 4 10 1 10 -3 0 -7 -4 -10 -9z"/>
<path d="M4187 6112 c-22 -24 -21 -29 4 -35 12 -3 22 0 26 9 3 8 9 11 14 8 5
-3 6 2 2 12 -5 15 -7 15 -15 0 -5 -9 -16 -16 -25 -16 -14 0 -14 2 2 20 10 11
16 20 13 20 -3 0 -12 -8 -21 -18z"/>
<path d="M3582 6105 c4 -4 0 -14 -10 -21 -15 -12 -15 -12 6 -7 24 6 29 18 10
29 -7 4 -10 4 -6 -1z"/>
<path d="M3768 5363 l-210 -208 358 -352 359 -353 423 0 c237 0 422 4 422 9 0
5 -204 208 -452 452 -627 614 -673 659 -682 659 -4 0 -102 -93 -218 -207z
m366 56 c69 -67 124 -125 123 -129 -1 -5 3 -9 8 -10 15 -3 35 -21 35 -32 0 -5
-4 -7 -9 -3 -5 3 -12 1 -16 -5 -10 -16 -35 -12 -35 6 0 14 -2 15 -17 3 -11
-10 -14 -10 -9 -1 4 6 2 12 -3 12 -6 0 -11 -4 -11 -10 0 -5 -5 -10 -11 -10 -5
0 -7 6 -3 13 5 8 2 8 -9 -2 -15 -12 -17 -11 -17 5 0 11 -3 15 -8 9 -6 -10 -20
-11 -39 -5 -5 1 -11 2 -15 1 -5 0 -8 4 -8 9 0 6 -12 8 -26 6 -15 -3 -36 0 -48
7 -12 6 -27 10 -34 9 -7 -2 -15 4 -18 13 -7 18 -25 21 -21 3 1 -6 -9 -12 -23
-12 -22 0 -25 3 -22 29 3 29 3 29 -12 10 -12 -17 -17 -18 -28 -6 -11 12 -10
13 7 7 16 -6 17 -5 8 5 -13 13 -44 -2 -97 -50 -17 -14 22 29 85 96 63 67 115
127 115 133 3 18 4 20 18 20 8 0 71 -55 140 -121z"/>
<path d="M5677 4858 c1 -57 2 -107 2 -112 1 -4 32 -6 70 -4 50 2 75 9 90 22
27 24 27 62 1 76 -18 10 -19 13 -5 33 19 29 9 66 -22 78 -13 5 -50 9 -81 9
l-57 0 2 -102z m125 57 c6 -16 17 -34 22 -38 7 -6 5 -7 -4 -4 -8 2 -26 0 -39
-5 l-25 -9 32 -19 c32 -20 42 -47 20 -55 -26 -8 -86 -12 -94 -6 -25 18 -11 71
19 72 21 1 21 1 -3 12 -21 10 -24 18 -22 47 3 33 5 35 42 35 35 1 41 -3 52
-30z m-7 -155 c-3 -5 -14 -10 -23 -9 -14 0 -13 2 3 9 27 11 27 11 20 0z m-78
-6 c-3 -3 -12 -4 -19 -1 -8 3 -5 6 6 6 11 1 17 -2 13 -5z"/>
<path d="M5980 4884 c0 -54 3 -73 12 -68 7 4 8 3 4 -4 -22 -36 50 -78 117 -69
67 9 87 40 87 138 0 72 -2 79 -20 79 -18 0 -20 -7 -20 -68 0 -80 -17 -112 -60
-112 -15 0 -35 3 -44 6 -20 8 -47 99 -42 142 4 26 1 32 -15 32 -17 0 -19 -8
-19 -76z m44 -70 c3 -8 2 -12 -4 -9 -6 3 -10 10 -10 16 0 14 7 11 14 -7z m158
-16 c-8 -8 -9 -4 -5 13 4 13 8 18 11 10 2 -7 -1 -18 -6 -23z m-22 -28 c-8 -5
-19 -10 -25 -10 -5 0 -3 5 5 10 8 5 20 10 25 10 6 0 3 -5 -5 -10z m-60 -10 c0
-5 -2 -10 -4 -10 -3 0 -8 5 -11 10 -3 6 -1 10 4 10 6 0 11 -4 11 -10z"/>
<path d="M6340 4850 c0 -87 3 -110 14 -110 21 0 26 23 26 126 0 87 -1 94 -20
94 -19 0 -20 -7 -20 -110z"/>
<path d="M6521 4850 c1 -60 6 -110 11 -110 5 0 7 4 4 8 -3 5 5 8 17 7 12 -1
30 2 41 7 13 7 16 7 12 -1 -5 -7 1 -10 16 -7 13 3 31 5 41 5 9 1 17 6 17 11 0
6 -27 10 -60 10 l-60 0 0 90 c0 84 -1 90 -20 90 -20 0 -20 -6 -19 -110z"/>
<path d="M6816 4853 c2 -97 4 -108 20 -111 16 -3 17 -1 4 7 -12 9 -11 11 7 11
12 0 25 -4 28 -10 3 -5 17 -10 30 -10 34 0 106 30 99 41 -3 5 0 9 6 9 21 0 32
53 20 93 -16 55 -57 77 -145 77 l-70 0 1 -107z m162 45 c7 -10 14 -32 14 -50
2 -45 -32 -70 -90 -66 l-44 3 -1 68 -2 68 55 -2 c40 -2 59 -8 68 -21z m49 -60
c-3 -8 -6 -5 -6 6 -1 11 2 17 5 13 3 -3 4 -12 1 -19z m-127 -78 c0 -5 -5 -10
-11 -10 -5 0 -7 5 -4 10 3 6 8 10 11 10 2 0 4 -4 4 -10z"/>
<path d="M7451 4848 c0 -62 3 -107 6 -100 2 6 9 12 14 12 6 0 7 -4 4 -10 -3
-5 -1 -10 4 -10 6 0 11 5 11 11 0 8 20 10 60 7 33 -2 60 0 60 4 0 5 5 6 10 3
6 -3 10 -1 10 4 0 7 -27 11 -70 11 l-70 0 0 90 c0 83 -1 90 -20 90 -19 0 -20
-6 -19 -112z"/>
<path d="M7740 4856 l0 -105 58 3 c31 1 64 5 72 9 8 3 26 8 40 10 14 2 -12 5
-57 6 l-81 1 7 28 c7 24 12 27 44 25 28 -2 37 1 37 13 0 8 5 12 10 9 6 -4 8
-11 5 -16 -4 -5 -1 -9 4 -9 6 0 11 9 11 20 0 18 -7 20 -55 20 -52 0 -55 1 -55
25 0 24 2 25 70 25 63 0 70 2 70 20 0 19 -7 20 -90 20 l-90 0 0 -104z"/>
<path d="M8130 4950 c0 -5 0 -13 1 -16 0 -4 -4 -10 -9 -13 -9 -6 -92 -164 -92
-176 0 -3 9 -5 20 -5 11 0 25 12 34 27 13 25 20 28 70 29 31 1 59 -3 62 -8 3
-4 10 -6 15 -3 5 4 8 -4 6 -17 -2 -18 3 -24 26 -26 15 -2 27 -2 27 0 0 2 -25
49 -55 103 -30 55 -55 103 -55 107 0 5 -11 8 -25 8 -14 0 -25 -4 -25 -10z m64
-62 c6 -4 7 -8 2 -8 -4 0 -1 -11 8 -25 19 -30 16 -31 -59 -38 l-50 -4 23 49
c13 27 27 46 33 43 5 -4 9 -3 8 2 -4 22 3 26 13 8 6 -11 16 -23 22 -27z m-127
-134 c-3 -3 -12 -4 -19 -1 -8 3 -5 6 6 6 11 1 17 -2 13 -5z m210 0 c-3 -3 -12
-4 -19 -1 -8 3 -5 6 6 6 11 1 17 -2 13 -5z"/>
<path d="M8401 4850 c0 -102 2 -110 20 -110 16 0 19 7 19 40 0 36 3 40 25 40
15 0 36 -12 52 -31 36 -39 65 -57 56 -33 -5 13 -3 15 8 9 8 -4 1 6 -15 23 -16
18 -28 33 -25 36 2 2 14 8 26 14 17 9 21 20 19 52 -1 21 -6 43 -11 47 -4 5 -5
1 0 -7 4 -8 -2 -5 -14 8 -18 19 -32 22 -91 22 l-70 0 1 -110z m146 54 c11 -30
-11 -49 -61 -52 l-46 -3 0 35 0 36 50 0 c38 0 52 -4 57 -16z m-54 -71 c-7 -2
-21 -2 -30 0 -10 3 -4 5 12 5 17 0 24 -2 18 -5z m77 -59 c0 -8 -19 -13 -24 -6
-3 5 1 9 9 9 8 0 15 -2 15 -3z"/>
<path d="M8730 4850 c0 -103 1 -110 20 -110 18 0 20 7 20 83 l0 82 36 -40 c19
-22 32 -34 28 -26 -5 10 -3 12 5 7 7 -5 10 -11 6 -14 -8 -8 56 -72 67 -66 5 3
7 0 6 -8 -4 -18 34 -16 39 2 4 13 3 13 -6 0 -9 -13 -11 -13 -11 3 0 9 5 17 10
17 6 0 10 37 10 90 0 89 0 90 -25 90 -17 0 -25 -5 -25 -17 0 -15 2 -16 10 -3
7 11 10 -5 10 -51 0 -44 -4 -68 -12 -72 -19 -7 -33 -3 -30 7 5 15 -120 136
-140 136 -16 0 -18 -11 -18 -110z m96 33 c-7 -7 -26 7 -26 19 0 6 6 6 15 -2 9
-7 13 -15 11 -17z m121 -40 c-3 -10 -5 -4 -5 12 0 17 2 24 5 18 2 -7 2 -21 0
-30z"/>
<path d="M9539 4950 c-3 -21 -5 -26 -23 -52 -10 -15 -14 -33 -10 -39 4 -7 3
-9 -3 -6 -5 3 -17 -10 -27 -29 -11 -24 -12 -33 -4 -29 7 4 5 0 -6 -9 -10 -8
-15 -20 -10 -27 4 -8 3 -10 -4 -5 -7 4 -12 2 -12 -3 0 -20 39 -11 51 11 22 41
60 61 74 38 3 -5 11 -10 16 -10 6 0 7 5 4 10 -3 6 -1 10 4 10 14 0 51 -37 51
-50 0 -5 7 -6 17 -3 11 4 14 3 9 -5 -4 -7 -3 -12 3 -12 20 0 18 16 -6 60 -13
25 -22 38 -19 28 4 -14 0 -15 -27 -7 -18 5 -48 9 -69 9 l-37 0 26 45 c23 42
43 58 43 35 0 -5 11 -25 24 -44 34 -50 41 -22 11 43 -20 42 -29 51 -50 51 -14
0 -26 -4 -26 -10z"/>
<path d="M9790 4889 c0 -38 4 -68 9 -65 4 3 6 -5 4 -18 -12 -60 116 -91 174
-42 26 23 28 31 32 110 3 82 2 86 -18 86 -19 0 -21 -6 -21 -62 0 -87 -15 -112
-67 -116 -57 -4 -73 20 -73 110 0 61 -2 68 -20 68 -18 0 -20 -7 -20 -71z m17
4 c-3 -10 -5 -4 -5 12 0 17 2 24 5 18 2 -7 2 -21 0 -30z m183 -107 c0 -2 -8
-10 -17 -17 -16 -13 -17 -12 -4 4 13 16 21 21 21 13z"/>
<path d="M10120 4951 c0 -7 42 -21 75 -25 6 -1 12 -39 15 -86 3 -50 8 -75 11
-60 l6 25 2 -27 c0 -14 -5 -29 -11 -31 -7 -3 -3 -6 9 -6 20 -1 21 3 17 52 -2
28 -1 69 2 90 6 36 7 37 45 37 24 0 38 4 34 10 -3 6 -2 10 4 10 5 0 12 -6 14
-12 3 -7 6 -3 6 10 1 22 -1 22 -114 22 -63 0 -115 -4 -115 -9z m107 -123 c-3
-8 -6 -5 -6 6 -1 11 2 17 5 13 3 -3 4 -12 1 -19z"/>
<path d="M10503 4950 c-48 -19 -74 -100 -48 -149 36 -70 153 -83 207 -22 23
25 27 39 25 78 -1 31 -6 47 -14 46 -7 -2 -10 3 -7 11 13 34 -105 59 -163 36z
m125 -53 c48 -44 13 -117 -56 -117 -21 0 -47 7 -59 15 -20 14 -23 14 -32 -2
-6 -10 -11 -13 -11 -6 0 6 5 15 10 18 6 3 7 17 4 30 -8 32 12 64 49 80 37 16
63 11 95 -18z m-157 -4 c-12 -20 -14 -14 -5 12 4 9 9 14 11 11 3 -2 0 -13 -6
-23z"/>
<path d="M10822 4853 c-2 -102 0 -113 16 -113 14 0 17 12 20 77 3 81 15 118
35 107 7 -4 3 2 -7 14 -21 24 -48 29 -45 10 1 -7 0 -56 -2 -108 l-3 -95 -6
110 -6 110 -2 -112z"/>
<path d="M11027 4936 c-9 -13 -14 -33 -12 -45 2 -11 0 -23 -5 -26 -5 -3 -7 5
-5 17 4 23 4 23 -11 3 -8 -11 -20 -27 -25 -35 -8 -13 -11 -12 -27 5 -17 19
-56 45 -67 45 -8 0 45 -83 62 -96 23 -19 46 -6 83 49 l35 52 6 -85 c3 -47 6
-79 7 -72 1 6 7 12 13 12 5 0 7 -4 4 -10 -3 -5 -1 -10 5 -10 7 0 10 35 8 108
l-3 107 -26 3 c-19 2 -31 -4 -42 -22z m60 -28 c-3 -7 -5 -2 -5 12 0 14 2 19 5
13 2 -7 2 -19 0 -25z"/>
<path d="M11327 4954 c-17 -17 -57 -115 -51 -125 4 -7 3 -9 -3 -6 -13 8 -46
-50 -37 -65 4 -7 3 -8 -4 -4 -7 4 -12 2 -12 -3 0 -22 41 -11 52 14 6 14 15 25
20 25 4 0 8 5 8 11 0 5 -5 7 -11 4 -16 -10 41 93 68 122 14 15 17 11 31 -37 5
-19 13 -42 16 -51 5 -11 1 -16 -11 -16 -53 1 -83 -4 -83 -13 0 -5 20 -10 44
-10 25 0 48 -5 51 -10 4 -6 11 -8 16 -5 5 3 6 -2 2 -11 -4 -12 -3 -15 5 -10 8
5 10 2 6 -8 -5 -12 0 -16 20 -16 28 0 35 17 11 26 -8 4 -12 11 -8 17 4 6 1 7
-7 2 -8 -5 -11 -3 -8 6 9 24 -70 169 -90 169 -10 0 -21 -3 -25 -6z"/>
<path d="M11540 4940 c0 -16 6 -20 33 -19 27 0 29 2 12 9 -14 6 -16 9 -4 9 37
2 48 -21 51 -109 3 -73 6 -85 21 -88 17 -3 18 4 17 75 -1 43 -1 84 -1 91 1 8
17 12 46 12 38 0 45 3 45 20 0 19 -7 20 -110 20 -103 0 -110 -1 -110 -20z
m112 -142 c2 -21 0 -38 -4 -38 -4 0 -7 24 -7 53 1 54 5 49 11 -15z"/>
<path d="M11860 4853 c0 -74 3 -103 10 -93 8 13 14 8 12 -11 -1 -10 93 -7 100
4 8 13 58 16 58 4 0 -5 -11 -7 -25 -5 -14 3 -25 1 -25 -4 0 -17 55 -4 58 14 3
15 -7 18 -70 20 -70 3 -73 4 -73 27 0 22 4 24 50 25 39 1 50 5 53 19 3 15 -5
17 -53 17 -55 0 -56 1 -53 27 3 26 4 26 76 24 67 -2 72 -1 72 18 0 20 -6 21
-95 21 l-95 0 0 -107z m17 10 c-2 -16 -4 -5 -4 22 0 28 2 40 4 28 2 -13 2 -35
0 -50z m0 -55 c-3 -8 -6 -5 -6 6 -1 11 2 17 5 13 3 -3 4 -12 1 -19z"/>
<path d="M10128 4923 c6 -2 18 -2 25 0 6 3 1 5 -13 5 -14 0 -19 -2 -12 -5z"/>
<path d="M8912 4870 c0 -14 2 -19 5 -12 2 6 2 18 0 25 -3 6 -5 1 -5 -13z"/>
<path d="M7127 4783 c-12 -11 -7 -33 8 -39 20 -8 45 13 38 32 -5 14 -34 19
-46 7z"/>
<path d="M9101 4777 c-9 -11 -8 -17 4 -27 19 -16 47 -5 43 17 -4 23 -31 28
-47 10z"/>
<path d="M12160 4780 c0 -5 9 -10 21 -10 11 0 17 5 14 10 -3 6 -13 10 -21 10
-8 0 -14 -4 -14 -10z"/>
<path d="M6686 4764 c-4 -9 -4 -19 -1 -22 2 -3 7 3 11 12 4 9 4 19 1 22 -2 3
-7 -3 -11 -12z"/>
<path d="M12175 4750 c-16 -7 -17 -9 -3 -9 9 -1 20 4 23 9 7 11 7 11 -20 0z"/>
</g>
</svg>
